<svg xmlns="http://www.w3.org/2000/svg" xmlns:svgjs="http://svgjs.com/svgjs" xmlns:xlink="http://www.w3.org/1999/xlink" width="288" height="288"><svg xmlns="http://www.w3.org/2000/svg" width="288" height="288" enable-background="new 0 0 122.88 85.7" viewBox="0 0 122.88 85.7"><path fill="#39c89b" fill-rule="evenodd" d="M0,85.7c1-12.96-1.54-12.4,9.31-16.46c5.42-2.03,12.34-4.6,17.31-7.71l9.31,24.17H0L0,85.7L0,85.7z M82.85,32.11c-0.77-0.11-1.31-0.84-1.21-1.64c0.1-0.8,0.81-1.36,1.58-1.25l23.15,3.39c0.77,0.11,1.31,0.84,1.21,1.64 c-0.1,0.8-0.81,1.36-1.58,1.25L82.85,32.11L82.85,32.11z M85.34,23.23c-0.77-0.11-1.31-0.84-1.2-1.64c0.1-0.8,0.81-1.36,1.58-1.25 l11.74,1.77c0.77,0.11,1.31,0.84,1.21,1.64c-0.1,0.8-0.81,1.36-1.58,1.25L85.34,23.23L85.34,23.23z M86.76,14.04 c-0.77-0.11-1.31-0.84-1.21-1.64c0.1-0.8,0.81-1.36,1.58-1.25l23.15,3.39c0.77,0.11,1.31,0.84,1.21,1.64 c-0.1,0.8-0.81,1.36-1.58,1.25L86.76,14.04L86.76,14.04z M46.56,72.85h1.3c1.17,0,2.13-0.96,2.13-2.13v-3.45 c0-1.17-0.96-2.13-2.13-2.13h-7.71c-1.17,0-2.13,0.96-2.13,2.13v3.45c0,1.17,0.96,2.13,2.13,2.13h1.32L38.94,85.7h10.05 L46.56,72.85L46.56,72.85L46.56,72.85z M104.67,5.63L87.25,3.32c-1.14-0.15-2.22-0.09-3.21,0.18c-0.99,0.27-1.94,0.74-2.84,1.42 c-0.89,0.68-1.59,1.47-2.12,2.36c-0.52,0.89-0.85,1.91-1.01,3.05l-2.26,17.01c-0.15,1.14-1.39,4.82-1.12,5.81 c0.27,0.99,0.74,1.94,1.43,2.84c0.7,0.89,1.49,1.62,2.38,2.12c0.89,0.51,1.89,0.85,3.03,1l7.48,0.99c0.87,0.12,1.5,0.93,1.38,1.81 c-0.03,0.2-0.09,0.37-0.16,0.53c-0.42,1.01-0.87,2.02-1.36,2.98c-0.51,1.02-1.04,1.98-1.61,2.9c-0.29,0.47-0.61,0.92-0.96,1.38 c1.62-0.48,3.17-1.07,4.62-1.77c1.52-0.73,2.97-1.58,4.31-2.54c1.38-0.97,2.63-2.08,3.81-3.28c0.37-0.38,0.87-0.52,1.36-0.46 l6.43,0.85c1.14,0.15,2.19,0.09,3.19-0.18c0.99-0.27,1.94-0.74,2.86-1.42c0.89-0.68,1.59-1.47,2.12-2.36 c0.52-0.89,0.85-1.91,1.01-3.05l3.55-19.61c0.15-1.14,0.09-2.22-0.18-3.21s-0.74-1.95-1.42-2.84c-0.68-0.89-1.47-1.59-2.37-2.12 c-0.89-0.51-1.91-0.85-3.05-1.01l-7.89-1.05L104.67,5.63L104.67,5.63L104.67,5.63L104.67,5.63z M95.57,1.18l17.42,2.3 c1.53,0.21,2.94,0.68,4.21,1.4c1.26,0.72,2.37,1.71,3.32,2.96c0.95,1.24,1.61,2.57,1.99,3.98c0.37,1.41,0.46,2.89,0.26,4.44 l-3.56,19.61c-0.21,1.55-0.68,2.96-1.4,4.21c-0.72,1.26-1.71,2.37-2.96,3.32c-1.24,0.95-2.57,1.59-3.98,1.99 c-1.4,0.37-2.89,0.47-4.44,0.26l-5.64-0.75c-1.15,1.12-2.38,2.16-3.65,3.08c-1.52,1.09-3.12,2.04-4.8,2.83 c-1.69,0.82-3.47,1.49-5.34,2.03c-1.85,0.53-3.81,0.92-5.85,1.18c-0.58,0.08-1.18-0.18-1.53-0.69c-0.5-0.73-0.31-1.73,0.43-2.24 c1.03-0.68,1.92-1.42,2.66-2.16c0.72-0.73,1.33-1.49,1.82-2.3v-0.02c0.53-0.86,1.03-1.75,1.48-2.65c0.15-0.32,0.31-0.65,0.47-0.98 l-5.38-0.71c-1.53-0.2-2.94-0.68-4.21-1.41c-1.26-0.72-2.38-1.71-3.32-2.96c-0.95-1.24-1.61-2.57-1.99-3.98 c-0.37-1.42,0.85-5.51,1.04-7.03l2.27-17.01c0.21-1.53,0.68-2.94,1.4-4.21c0.72-1.26,1.71-2.38,2.96-3.32 c1.24-0.95,2.57-1.61,3.98-1.99c1.4-0.37,2.89-0.47,4.43-0.26l7.88,1.05L95.57,1.18L95.57,1.18L95.57,1.18L95.57,1.18z M33.07,54.1 c0.24-1.99-5.66-9.59-6.74-13.23c-2.31-3.67-3.13-9.51-0.61-13.39c1-1.54,0.57-4.28,0.57-6.41c0-21.12,37.01-21.13,37.01,0 c0,2.67-0.61,4.7,0.83,6.81c2.42,3.51,1.18,9.74-0.87,13c-1.31,3.83-7.5,11.06-7.07,13.23C56.58,64.95,33,64.59,33.07,54.1 L33.07,54.1L33.07,54.1z M61.8,60.43c4.55,2.91,11,5.3,16.16,7.02c10.13,3.37,10.1,3.84,10.03,18.25H52.19L61.8,60.43L61.8,60.43 L61.8,60.43z" class="color000 svgShape" clip-rule="evenodd"/></svg></svg>